<svg version="1.1" viewBox="0.0 0.0 508.29396325459317 452.37270341207346" fill="none" stroke="none" stroke-linecap="square" stroke-miterlimit="10" xmlns:xlink="http://www.w3.org/1999/xlink" xmlns="http://www.w3.org/2000/svg"><clipPath id="p.0"><path d="m0 0l508.29398 0l0 452.3727l-508.29398 0l0 -452.3727z" clip-rule="nonzero"/></clipPath><g clip-path="url(#p.0)"><path fill="#000000" fill-opacity="0.0" d="m0 0l508.29398 0l0 452.3727l-508.29398 0z" fill-rule="evenodd"/><path fill="#000000" fill-opacity="0.0" d="m-2.4624414 83.58315l508.28345 0.03149414l0 250.48819l-508.28345 -0.03149414z" fill-rule="evenodd"/><path fill="#ffffff" d="m143.47505 275.6322l-29.968742 -0.0018615723l-11.921875 -31.000748l-54.546875 -0.0033721924l-11.265625 30.999298l-29.234375 -0.0018005371l53.15625 -136.46547l29.140625 0.0018005371l54.640617 136.47215zm-50.734367 -54.00316l-18.796875 -50.641785l-18.4375 50.63948l37.234375 0.0023040771z" fill-rule="nonzero"/><path fill="#ffffff" d="m258.42654 242.13931l8.8125 -8.796326l0.25 0.23439026l-107.62503 0.3527069l0 -20.828125l127.765656 0.4141693l-0.28125 -0.28126526l9.796875 -9.82753l-8.3125 -8.328629l-1.375 -1.3594666l-127.59378 -0.007904053l0 -20.828125l106.765656 0.0066070557l-2.375 -2.3907623l-5.828125 -5.812866l15.375 -15.358414l5.078125 5.04718l43.9375 43.97148l5.078125 5.062805l-18.484375 18.48323l-35.609375 35.622787l-15.375 -15.375946z" fill-rule="nonzero"/><path fill="#ffffff" d="m354.80154 139.17653l54.546875 0.0033874512q16.203125 0.0010070801 24.15625 1.3452454q7.96875 1.3442383 14.25 5.625885q6.28125 4.2816315 10.46875 11.406891q4.1875 7.1252594 4.1875 15.969009q0 9.59375 -5.171875 17.609055q-5.15625 7.999695 -14.0 11.9991455q12.46875 3.625763 19.171875 12.376175q6.703125 8.750427 6.703125 20.578552q0 9.3125 -4.328125 18.1091q-4.328125 8.7966 -11.828125 14.061768q-7.484375 5.249542 -18.46875 6.451996q-6.890625 0.74957275 -33.234375 0.9354248l-46.453125 -0.0028686523l0 -136.46877zm27.546875 22.704834l0 31.5625l18.0625 0.0011291504q16.109375 9.918213E-4 20.015625 -0.46751404q7.078125 -0.8276825 11.125 -4.8743134q4.046875 -4.0622406 4.046875 -10.671616q0 -6.328125 -3.5 -10.281479q-3.484375 -3.9533386 -10.359375 -4.797516q-4.109375 -0.46899414 -23.5625 -0.47019958l-15.828125 -9.918213E-4zm0 54.28125l0 36.484375l25.515625 0.0015869141q14.890625 9.1552734E-4 18.890625 -0.8269501q6.140625 -1.1246185 10.0 -5.4525146q3.875 -4.327881 3.875 -11.593506q0 -6.140625 -2.984375 -10.422058q-2.96875 -4.281433 -8.609375 -6.234909q-5.625 -1.953476 -24.4375 -1.9546356l-22.25 -0.0013885498z" fill-rule="nonzero"/></g></svg>