<svg version="1.1" viewBox="0.0 0.0 508.29396325459317 452.37270341207346" fill="none" stroke="none" stroke-linecap="square" stroke-miterlimit="10" xmlns:xlink="http://www.w3.org/1999/xlink" xmlns="http://www.w3.org/2000/svg"><clipPath id="p.0"><path d="m0 0l508.29398 0l0 452.3727l-508.29398 0l0 -452.3727z" clip-rule="nonzero"/></clipPath><g clip-path="url(#p.0)"><path fill="#000000" fill-opacity="0.0" d="m0 0l508.29398 0l0 452.3727l-508.29398 0z" fill-rule="evenodd"/><path fill="#000000" d="m-3.136483 -4.3937006l516.3779 0l0 461.7953l-516.3779 0z" fill-rule="evenodd"/><path stroke="#000000" stroke-width="1.0" stroke-linejoin="round" stroke-linecap="butt" d="m-3.136483 -4.3937006l516.3779 0l0 461.7953l-516.3779 0z" fill-rule="evenodd"/><path fill="#000000" d="m-2.4671917 83.59055l508.28348 0l0 250.48819l-508.28348 0z" fill-rule="evenodd"/><path fill="#ffffff" d="m143.4703 275.63055l-29.96875 0l-11.921875 -31.000015l-54.54687 0l-11.265625 31.000015l-29.234377 0l53.15625 -136.46877l29.140621 0l54.640625 136.46877zm-50.734375 -54.000015l-18.796875 -50.640625l-18.437496 50.640625l37.23437 0z" fill-rule="nonzero"/><path fill="#ffffff" d="m258.42178 242.13054l8.8125 -8.796875l0.25 0.234375l-107.625015 0.359375l0 -20.828125l127.76564 0.40625l-0.28125 -0.28125l9.796875 -9.828125l-8.3125 -8.328125l-1.375 -1.359375l-127.593765 0l0 -20.828125l106.76564 0l-2.375 -2.390625l-5.828125 -5.8125l15.375 -15.359375l5.078125 5.046875l43.9375 43.96875l5.078125 5.0625l-18.484375 18.484375l-35.609375 35.625015l-15.375 -15.375015z" fill-rule="nonzero"/><path fill="#ffffff" d="m354.79678 139.16179l54.546875 0q16.203125 0 24.15625 1.34375q7.96875 1.34375 14.25 5.625q6.28125 4.28125 10.46875 11.40625q4.1875 7.125 4.1875 15.96875q0 9.59375 -5.171875 17.609375q-5.15625 8.0 -14.0 12.0q12.46875 3.625 19.171875 12.375q6.703125 8.75 6.703125 20.578125q0 9.3125 -4.328125 18.109375q-4.328125 8.79689 -11.828125 14.062515q-7.484375 5.25 -18.46875 6.453125q-6.890625 0.75 -33.234375 0.9375l-46.453125 0l0 -136.46877zm27.546875 22.703125l0 31.5625l18.0625 0q16.109375 0 20.015625 -0.46875q7.078125 -0.828125 11.125 -4.875q4.046875 -4.0625 4.046875 -10.671875q0 -6.328125 -3.5 -10.28125q-3.484375 -3.953125 -10.359375 -4.796875q-4.109375 -0.46875 -23.5625 -0.46875l-15.828125 0zm0 54.28125l0 36.484375l25.515625 0q14.890625 0 18.890625 -0.828125q6.140625 -1.125 10.0 -5.453125q3.875 -4.328125 3.875 -11.59375q0 -6.140625 -2.984375 -10.421875q-2.96875 -4.28125 -8.609375 -6.234375q-5.625 -1.953125 -24.4375 -1.953125l-22.25 0z" fill-rule="nonzero"/></g></svg>